<?xml version="1.0" encoding="utf-8"?>
<!-- Generator: Adobe Illustrator 16.0.0, SVG Export Plug-In . SVG Version: 6.00 Build 0)  -->
<!DOCTYPE svg PUBLIC "-//W3C//DTD SVG 1.1//EN" "http://www.w3.org/Graphics/SVG/1.1/DTD/svg11.dtd">
<svg version="1.1" xmlns="http://www.w3.org/2000/svg" xmlns:xlink="http://www.w3.org/1999/xlink" x="0px" y="0px"
	 width="116.221px" height="116.221px" viewBox="0 0 116.221 116.221" enable-background="new 0 0 116.221 116.221"
	 xml:space="preserve">
<g id="guides">
</g>
<g id="logo">
	<g>
		<g>
			<path fill="#7D2345" d="M114.396,101.207c0,7.638-6.19,13.828-13.828,13.828h-85.73c-7.637,0-13.827-6.19-13.827-13.828v-85.73
				c0-7.637,6.19-13.827,13.827-13.827h85.73c7.638,0,13.828,6.19,13.828,13.827V101.207z"/>
			<g>
				<g>
					<path fill="#D2B569" d="M6.28,41.044c0,0,15.818-6.129,26.178-6.129c10.358,0,24.744,6.129,24.744,6.129v43.188
						c0,0-14.386-6.128-24.744-6.128c-10.359,0-26.178,6.128-26.178,6.128V41.044z"/>
					<path fill="#6F6C67" d="M6.28,84.005c0,0,15.818-6.128,26.178-6.128c10.358,0,24.744,6.128,24.744,6.128v6.435
						c0,0-14.386-6.128-24.744-6.128c-10.359,0-26.178,6.128-26.178,6.128V84.005z"/>
					<path fill="#6F6C67" d="M58.207,84.005c0,0,15.816-6.128,26.176-6.128s24.745,6.128,24.745,6.128v6.435
						c0,0-14.386-6.128-24.745-6.128s-26.176,6.128-26.176,6.128V84.005z"/>
					<path fill="#D2B569" d="M58.207,41.044c0,0,15.816-6.129,26.176-6.129s24.745,6.129,24.745,6.129v43.188
						c0,0-14.386-6.128-24.745-6.128s-26.176,6.128-26.176,6.128V41.044z"/>
					<path fill="#FFEF9B" d="M58.207,41.021c0,0,11.835-14.774,22.194-14.774s24.744,6.128,24.744,6.128v43.188
						c0,0-14.385-6.127-24.744-6.127S58.207,84.209,58.207,84.209V41.021z"/>
					<path fill="#FFEF9B" d="M57.202,41.021c0,0-11.835-14.774-22.194-14.774s-24.745,6.128-24.745,6.128v43.188
						c0,0,14.386-6.127,24.745-6.127s22.194,14.774,22.194,14.774V41.021z"/>
				</g>
			</g>
		</g>
	</g>
</g>
<g id="Landing_Page_content">
	<g id="body">
	</g>
	<g id="footer">
	</g>
	<g id="nav-bar">
	</g>
</g>
<g id="Landing_Page_guides_copy">
	<g id="footer_copy">
	</g>
	<g id="body_copy">
	</g>
	<g id="book">
	</g>
	<g id="nav-bar_copy">
	</g>
</g>
</svg>
